<svg xmlns="http://www.w3.org/2000/svg" viewBox="0 0 512 512">
  <defs>
    <linearGradient id="edge" x1="72" y1="72" x2="440" y2="440" gradientUnits="userSpaceOnUse">
      <stop offset="0" stop-color="#7dd3fc"/>
      <stop offset="0.52" stop-color="#a7f3d0"/>
      <stop offset="1" stop-color="#f0abfc"/>
    </linearGradient>
    <radialGradient id="glow" cx="34%" cy="24%" r="74%">
      <stop offset="0" stop-color="#1f2937"/>
      <stop offset="0.55" stop-color="#090d14"/>
      <stop offset="1" stop-color="#02040a"/>
    </radialGradient>
  </defs>
  <rect width="512" height="512" rx="112" fill="url(#glow)"/>
  <rect x="34" y="34" width="444" height="444" rx="92" fill="none" stroke="url(#edge)" stroke-width="24"/>
  <path
    d="M151 140v135c0 71 42 111 105 111s105-40 105-111V140h-62v134c0 37-16 56-43 56s-43-19-43-56V140h-62Z"
    fill="#f8fafc"
  />
  <path
    d="M326 203c-18-13-39-20-62-20-28 0-46 11-46 27 0 17 21 22 50 29 43 10 83 25 83 75 0 48-40 77-98 77-42 0-78-13-105-38l34-43c20 18 45 28 73 28 23 0 38-8 38-22 0-16-19-21-50-29-45-11-84-27-84-76 0-45 38-76 97-76 36 0 68 10 94 30l-24 38Z"
    fill="#7dd3fc"
    opacity="0.95"
  />
</svg>
